Coordinates
version=1
nRows=10
nColumns=34
inDegrees=yes

Units are S.I. units (second, meters, Newtons, ...)
If the header above contains a line with 'inDegrees', this indicates whether rotational values are in degrees (yes) or radians (no).

endheader
time	pelvis_tilt	pelvis_list	pelvis_rotation	pelvis_tx	pelvis_ty	pelvis_tz	hip_flexion_r	hip_adduction_r	hip_rotation_r	knee_angle_r	ankle_angle_r	subtalar_angle_r	mtp_angle_r	hip_flexion_l	hip_adduction_l	hip_rotation_l	knee_angle_l	ankle_angle_l	subtalar_angle_l	mtp_angle_l	lumbar_extension	lumbar_bending	lumbar_rotation	arm_flex_r	arm_add_r	arm_rot_r	elbow_flex_r	pro_sup_r	arm_flex_l	arm_add_l	arm_rot_l	elbow_flex_l	pro_sup_l
      0.00000000	      6.47101203	     -5.90945599	    -23.19585677	      3.47424070	      0.89797369	      1.00258319	     34.57986169	      0.96871423	     -2.21479775	     27.30788762	     -7.68121114	    -14.80995665	      0.00000000	     32.51822208	      6.49288221	     -1.30824780	     12.62985224	    -22.17304102	     -8.71556818	      0.00000000	    -22.16918705	     -8.97192767	      2.90824508	     10.20877119	    -19.94234930	     29.45260380	     86.99197972	    119.74817918	      8.34828569	    -13.16350602	     17.61029789	    105.69207227	    117.41973939
      0.01666670	      6.45940381	     -5.90907314	    -23.19610206	      3.47438808	      0.89798265	      1.00258948	     34.56916089	      0.96473856	     -2.21565522	     27.31041272	     -7.68146859	    -14.80925583	      0.00000000	     32.52060353	      6.49241240	     -1.30732524	     12.62671587	    -22.17440786	     -8.71569241	      0.00000000	    -22.16550268	     -8.97267058	      2.91094556	     10.21107035	    -19.94027100	     29.45453271	     86.99713596	    119.74817918	      8.34473144	    -13.16871490	     17.61354209	    105.69006384	    117.42116844
      0.03333330	      6.31443581	     -5.94171285	    -23.27762103	      3.47457723	      0.89764695	      1.00322344	     34.63147965	      1.08140260	     -2.39793230	     27.21536819	     -7.51776119	    -14.76674217	      0.00000000	     32.58866542	      6.40003020	     -0.88786839	     12.52793877	    -22.26231861	     -8.98875204	      0.00000000	    -21.98849744	     -8.93939584	      2.93522542	     10.24147044	    -19.95162064	     29.98116676	     87.52636758	    119.74817918	      7.99594206	    -13.60292476	     17.82001222	    105.91955976	    117.73529306
      0.05000000	      6.36230230	     -5.97749249	    -23.32146453	      3.47503458	      0.89779951	      1.00315262	     34.53773790	      1.06597827	     -2.31002492	     27.23480073	     -7.53348242	    -14.63950973	      0.00000000	     32.54703180	      6.39066110	     -0.85402494	     12.63390077	    -22.22677581	     -9.08210872	      0.00000000	    -21.92281783	     -8.88428875	      2.93804703	     10.22052639	    -19.87340642	     29.95554742	     87.57014060	    119.74817918	      7.67985790	    -13.66330517	     17.70187299	    105.72377772	    117.77952424
      0.06666670	      6.53385735	     -6.13785450	    -23.02869447	      3.47579346	      0.89828317	      1.00267791	     34.28782902	      1.00931128	     -1.67147859	     27.22747232	     -6.97270688	    -14.31491275	      0.00000000	     32.28912487	      6.49240285	     -0.59206297	     12.70233979	    -22.02708259	     -9.42412007	      0.00000000	    -21.96354285	     -8.69864706	      2.65941929	     10.13072868	    -19.53378755	     29.49830613	     87.81972495	    119.74817918	      7.25199671	    -13.47472653	     17.10872392	    105.67783979	    118.00756367
      0.08333330	      7.08124883	     -6.15095081	    -23.10439152	      3.47643613	      0.89921799	      1.00226768	     33.81560730	      0.53154364	     -1.98484776	     27.37562257	     -5.91251059	    -12.34944577	      0.00000000	     31.69594296	      6.67280251	     -0.72419179	     12.72555123	    -22.02134416	     -9.76407559	      0.00000000	    -22.37893000	     -8.78584089	      2.76547688	      9.94070829	    -19.35259703	     29.09614702	     88.42963898	    119.74817918	      7.21616705	    -13.41130555	     16.88963066	    105.16384917	    118.94588198
      0.10000000	      7.36750643	     -6.00033261	    -22.86413224	      3.47806964	      0.89959738	      1.00271157	     33.35116203	      0.19225767	     -1.64385239	     27.11271329	     -5.36483145	    -11.93290310	      0.00000000	     31.81926226	      7.01433700	     -0.69117452	     13.54951509	    -21.73478849	    -10.04481675	      0.00000000	    -22.30090185	     -8.97273154	      2.37002868	      9.60993653	    -18.68147803	     28.66345528	     89.11898662	    119.74817918	      6.78846159	    -13.66113736	     16.16840666	    104.47993824	    119.06252534
      0.11666670	      7.71591892	     -5.95157690	    -22.90355835	      3.48020318	      0.90000038	      1.00427719	     32.77151173	      0.15186142	     -0.90401123	     27.15714387	     -3.63946775	    -11.23791138	      0.00000000	     31.98804501	      7.15597492	     -0.57164334	     14.85038498	    -21.01850344	    -10.70697163	      0.00000000	    -22.18360383	     -9.23467520	      2.09476124	      9.34077064	    -17.62449922	     28.33272001	     89.50752791	    119.74817918	      6.33647217	    -13.89317203	     15.74389445	    103.31962554	    119.23927913
      0.13333330	      8.12017144	     -5.91348466	    -23.15620004	      3.48231373	      0.90119852	      1.00648551	     32.30987262	     -0.08601614	     -0.99575823	     27.72000916	     -0.18461013	     -7.78026308	      0.00000000	     31.91549513	      7.11171152	     -0.96146577	     15.80095811	    -20.48770595	    -10.95321931	      0.00000000	    -22.03597914	     -9.65582959	      2.22994916	      8.70067915	    -16.68688713	     27.75588247	     89.81022747	    119.74817918	      5.85959593	    -14.25259645	     15.86590236	    102.37615520	    119.74817918
      0.15000000	      8.36828779	     -6.26498869	    -22.98573765	      3.48402409	      0.90223597	      1.00823050	     31.75957781	      0.34087445	     -0.07634362	     28.07092410	      1.92428558	     -7.62280645	      0.00000000	     31.93191698	      6.89940371	     -0.60072933	     16.91076429	    -20.00618382	    -11.26899402	      0.00000000	    -21.98938817	     -9.60402106	      1.96456272	      8.45028715	    -15.77601343	     27.76585894	     89.66480076	    119.74817918	      5.31938364	    -14.60584274	     16.15120034	    102.06439399	    119.74817918
